<svg xmlns="http://www.w3.org/2000/svg" version="1.1" xmlns:xlink="http://www.w3.org/1999/xlink" xmlns:svgjs="http://svgjs.com/svgjs" width="400" height="386.98481561822126"><svg id="SvgjsSvg1007" version="1.1" xmlns="http://www.w3.org/2000/svg" xmlns:xlink="http://www.w3.org/1999/xlink" width="400" height="386.98481561822126" viewBox="0, 0, 400,386.98481561822126"><g id="SvgjsG1006"><path id="SvgjsPath1005" d="M203.872 138.070 C 203.233 138.157,200.881 138.411,198.645 138.635 C 196.409 138.858,193.882 139.194,193.030 139.380 C 192.178 139.566,190.261 139.927,188.771 140.183 C 177.279 142.153,163.030 147.699,153.533 153.897 C 139.760 162.887,130.811 174.618,125.621 190.485 C 124.490 193.940,123.924 196.020,122.922 200.387 C 121.665 205.866,121.101 221.349,121.983 226.151 C 123.886 236.518,127.780 246.399,135.329 260.019 C 137.975 264.793,142.975 274.691,144.132 277.444 C 146.387 282.813,147.309 284.981,147.921 286.350 C 148.302 287.202,149.084 289.032,149.660 290.416 C 150.237 291.801,151.126 293.853,151.637 294.978 C 152.147 296.102,152.565 297.099,152.565 297.194 C 152.565 299.413,165.280 322.818,169.078 327.590 C 169.332 327.909,170.746 329.692,172.221 331.553 C 198.426 364.616,228.565 362.828,245.584 327.202 C 247.116 323.995,248.984 319.848,248.984 319.653 C 248.984 319.558,249.429 318.474,249.974 317.243 C 251.322 314.194,251.740 313.218,252.133 312.197 C 252.618 310.937,253.189 309.518,253.612 308.519 C 254.093 307.382,258.108 297.205,260.218 291.772 C 262.095 286.939,262.348 286.306,264.003 282.285 C 264.661 280.687,266.008 277.377,266.996 274.927 C 267.984 272.478,269.058 269.864,269.382 269.119 C 269.707 268.374,270.111 267.415,270.280 266.989 C 270.449 266.563,271.041 265.208,271.596 263.978 C 272.150 262.747,272.604 261.656,272.604 261.553 C 272.604 261.373,273.194 260.014,275.165 255.653 C 275.673 254.529,276.089 253.525,276.089 253.422 C 276.089 253.319,276.455 252.409,276.902 251.399 C 277.349 250.390,277.867 249.216,278.052 248.790 C 293.497 213.292,288.982 181.987,265.053 158.656 C 260.776 154.486,248.664 145.983,247.001 145.983 C 246.800 145.983,245.807 145.563,244.795 145.051 C 235.679 140.431,213.851 136.708,203.872 138.070 M218.587 214.173 C 221.644 214.692,225.629 215.698,227.493 216.422 C 257.748 228.174,263.492 261.615,239.333 285.355 C 217.139 307.164,182.064 297.894,170.570 267.183 C 170.212 266.225,169.764 265.092,169.576 264.666 C 163.933 251.900,170.102 232.565,182.962 222.712 C 192.369 215.505,206.485 212.122,218.587 214.173 " stroke="none" fill="#fbfbfb" fill-rule="evenodd" data-darkreader-inline-fill="" data-darkreader-inline-stroke="" style="--darkreader-inline-fill:#1a1c1e; --darkreader-inline-stroke:none;"></path><path id="SvgjsPath1004" d="M190.319 33.912 C 181.320 34.432,170.689 35.873,162.827 37.638 C 154.068 39.605,152.707 39.974,145.986 42.205 C 134.570 45.996,123.853 51.048,113.650 57.450 C 108.521 60.668,104.163 63.945,104.163 64.583 C 104.163 64.986,147.035 151.424,149.673 156.340 C 149.702 156.393,151.279 155.408,153.178 154.150 C 162.768 147.798,177.056 142.191,188.771 140.183 C 190.261 139.927,192.178 139.567,193.030 139.383 C 208.001 136.141,232.508 138.824,244.795 145.051 C 247.159 146.248,247.749 146.224,248.062 144.918 C 248.201 144.332,248.441 143.679,248.594 143.466 C 248.747 143.253,248.966 142.730,249.080 142.304 C 249.195 141.878,249.932 139.787,250.718 137.657 C 251.503 135.528,252.289 133.349,252.464 132.817 C 252.638 132.285,253.422 130.106,254.206 127.977 C 254.990 125.847,255.774 123.669,255.949 123.136 C 256.123 122.604,256.903 120.426,257.681 118.296 C 258.460 116.167,259.683 112.769,260.401 110.745 C 261.629 107.282,262.739 104.189,266.932 92.546 C 267.891 89.884,269.139 86.399,269.705 84.802 C 272.109 78.025,272.684 76.435,272.997 75.702 C 273.178 75.276,273.880 73.359,274.555 71.442 C 278.425 60.464,279.210 58.310,279.716 57.297 C 280.377 55.970,280.488 56.082,276.283 53.800 C 265.512 47.953,251.799 42.464,240.658 39.540 C 233.530 37.670,224.575 35.930,218.393 35.215 C 216.370 34.980,213.484 34.635,211.980 34.446 C 208.967 34.069,193.994 33.699,190.319 33.912 M210.358 213.626 C 210.731 213.723,211.341 213.723,211.713 213.626 C 212.086 213.529,211.781 213.449,211.036 213.449 C 210.290 213.449,209.985 213.529,210.358 213.626 M216.651 214.134 C 218.289 214.550,219.694 214.550,218.393 214.134 C 217.861 213.963,216.989 213.827,216.457 213.831 C 215.587 213.837,215.607 213.868,216.651 214.134 M241.626 225.169 C 242.349 225.915,243.027 226.525,243.134 226.525 C 243.240 226.525,242.736 225.915,242.014 225.169 C 241.291 224.424,240.613 223.814,240.506 223.814 C 240.400 223.814,240.904 224.424,241.626 225.169 M244.724 228.267 C 245.447 229.013,246.125 229.622,246.231 229.622 C 246.338 229.622,245.834 229.013,245.111 228.267 C 244.389 227.522,243.711 226.912,243.604 226.912 C 243.498 226.912,244.002 227.522,244.724 228.267 M254.162 252.275 C 254.163 254.618,254.227 255.526,254.304 254.294 C 254.381 253.061,254.380 251.145,254.302 250.034 C 254.224 248.924,254.161 249.932,254.162 252.275 M167.757 255.566 C 167.757 256.312,167.837 256.617,167.934 256.244 C 168.031 255.871,168.031 255.261,167.934 254.889 C 167.837 254.516,167.757 254.821,167.757 255.566 M181.801 284.608 C 183.065 285.886,184.187 286.931,184.293 286.931 C 184.400 286.931,183.452 285.886,182.188 284.608 C 180.923 283.330,179.802 282.285,179.695 282.285 C 179.589 282.285,180.536 283.330,181.801 284.608 M239.869 284.705 L 237.948 286.738 239.981 284.816 C 241.870 283.031,242.191 282.672,241.902 282.672 C 241.841 282.672,240.926 283.587,239.869 284.705 M206.873 297.266 C 207.246 297.363,207.856 297.363,208.228 297.266 C 208.601 297.169,208.296 297.089,207.551 297.089 C 206.805 297.089,206.500 297.169,206.873 297.266 M213.456 297.266 C 213.829 297.363,214.439 297.363,214.811 297.266 C 215.184 297.169,214.879 297.089,214.134 297.089 C 213.388 297.089,213.083 297.169,213.456 297.266 M210.165 297.660 C 210.644 297.752,211.428 297.752,211.907 297.660 C 212.386 297.567,211.994 297.492,211.036 297.492 C 210.077 297.492,209.685 297.567,210.165 297.660 M178.122 338.625 C 178.844 339.371,179.523 339.981,179.629 339.981 C 179.736 339.981,179.232 339.371,178.509 338.625 C 177.787 337.880,177.108 337.270,177.002 337.270 C 176.896 337.270,177.400 337.880,178.122 338.625 M233.474 345.305 L 232.139 346.757 233.591 345.423 C 234.943 344.181,235.222 343.853,234.926 343.853 C 234.861 343.853,234.208 344.506,233.474 345.305 M211.133 355.349 C 211.505 355.447,212.115 355.447,212.488 355.349 C 212.861 355.252,212.556 355.172,211.810 355.172 C 211.065 355.172,210.760 355.252,211.133 355.349 " stroke="none" fill="#fbcb34" fill-rule="evenodd" data-darkreader-inline-fill="" data-darkreader-inline-stroke="" style="--darkreader-inline-fill:#ac8303; --darkreader-inline-stroke:none;"></path><path id="SvgjsPath1003" d="M181.420 0.260 C 178.656 0.344,176.225 0.580,176.019 0.787 C 175.812 0.993,174.110 1.162,172.236 1.162 C 169.465 1.162,168.829 1.270,168.829 1.742 C 168.829 2.210,168.226 2.323,165.731 2.323 C 163.924 2.323,162.633 2.485,162.633 2.711 C 162.633 2.924,161.750 3.098,160.672 3.098 C 159.593 3.098,158.403 3.262,158.028 3.463 C 157.653 3.664,156.444 3.869,155.343 3.919 C 154.241 3.969,153.340 4.154,153.340 4.329 C 153.340 4.504,152.637 4.647,151.779 4.647 C 150.748 4.647,150.142 4.844,149.995 5.227 C 149.844 5.622,149.226 5.808,148.071 5.808 C 147.135 5.808,146.370 5.983,146.370 6.196 C 146.370 6.409,145.586 6.583,144.627 6.583 C 143.669 6.583,142.885 6.757,142.885 6.970 C 142.885 7.183,142.198 7.357,141.359 7.357 C 140.519 7.357,139.725 7.531,139.593 7.744 C 139.462 7.957,138.662 8.132,137.816 8.132 C 136.806 8.132,136.201 8.331,136.055 8.712 C 135.917 9.071,135.329 9.293,134.518 9.293 C 133.795 9.293,133.204 9.468,133.204 9.681 C 133.204 9.894,132.594 10.068,131.849 10.068 C 131.104 10.068,130.494 10.242,130.494 10.455 C 130.494 10.668,129.971 10.842,129.332 10.842 C 128.693 10.842,128.170 11.016,128.170 11.229 C 128.170 11.442,127.561 11.617,126.815 11.617 C 125.869 11.617,125.460 11.792,125.460 12.197 C 125.460 12.603,125.051 12.778,124.105 12.778 C 123.359 12.778,122.749 12.953,122.749 13.166 C 122.749 13.379,122.401 13.553,121.975 13.553 C 121.549 13.553,121.200 13.727,121.200 13.940 C 121.200 14.153,120.762 14.327,120.227 14.327 C 119.692 14.327,118.951 14.487,118.581 14.682 C 117.238 15.390,115.071 16.263,114.656 16.263 C 114.422 16.263,114.230 16.438,114.230 16.651 C 114.230 16.864,113.795 17.038,113.262 17.038 C 112.730 17.038,112.294 17.212,112.294 17.425 C 112.294 17.638,111.946 17.812,111.520 17.812 C 111.094 17.812,110.745 17.986,110.745 18.199 C 110.745 18.412,110.217 18.587,109.572 18.587 C 108.866 18.587,108.305 18.827,108.166 19.190 C 108.039 19.521,107.689 19.699,107.389 19.583 C 107.089 19.468,106.745 19.633,106.623 19.948 C 106.502 20.264,106.166 20.523,105.875 20.523 C 105.585 20.523,104.727 20.871,103.969 21.297 C 103.211 21.723,102.237 22.072,101.805 22.072 C 101.373 22.072,101.127 22.246,101.258 22.459 C 101.475 22.810,100.959 23.016,100.183 22.888 C 100.017 22.861,99.781 23.102,99.657 23.423 C 99.534 23.745,99.207 24.008,98.931 24.008 C 98.655 24.008,97.379 24.601,96.096 25.326 C 94.813 26.051,93.664 26.545,93.542 26.423 C 93.420 26.302,93.320 26.492,93.320 26.847 C 93.320 27.278,92.998 27.493,92.352 27.493 C 91.820 27.493,91.384 27.667,91.384 27.880 C 91.384 28.093,91.110 28.267,90.776 28.267 C 90.441 28.267,89.904 28.530,89.583 28.852 C 89.262 29.173,88.838 29.337,88.643 29.216 C 88.447 29.095,88.287 29.180,88.287 29.406 C 88.287 29.632,88.025 29.816,87.706 29.816 C 87.386 29.816,87.125 30.077,87.125 30.397 C 87.125 30.720,86.781 30.978,86.350 30.978 C 85.924 30.978,85.576 31.120,85.576 31.293 C 85.576 31.689,82.594 33.301,81.861 33.301 C 81.561 33.301,81.360 33.485,81.413 33.710 C 81.467 33.936,80.726 34.565,79.768 35.109 C 78.809 35.652,77.967 36.252,77.896 36.442 C 77.825 36.631,77.520 36.786,77.218 36.786 C 76.917 36.786,76.670 37.047,76.670 37.367 C 76.670 37.686,76.360 37.948,75.981 37.948 C 75.602 37.948,75.041 38.296,74.734 38.722 C 74.427 39.148,73.749 39.497,73.228 39.497 C 72.708 39.497,72.380 39.595,72.501 39.716 C 72.893 40.108,70.525 42.207,69.690 42.207 C 69.244 42.207,68.987 42.381,69.119 42.594 C 69.251 42.807,69.166 42.982,68.931 42.982 C 68.695 42.982,68.067 43.417,67.535 43.950 C 67.003 44.482,66.389 44.918,66.172 44.918 C 65.955 44.918,64.834 45.876,63.681 47.047 C 62.528 48.219,61.446 49.177,61.276 49.177 C 61.105 49.177,60.668 49.526,60.303 49.952 C 59.938 50.378,59.377 50.726,59.055 50.726 C 58.734 50.726,58.470 50.866,58.470 51.038 C 58.470 51.431,55.941 54.211,55.583 54.211 C 55.274 54.211,54.211 55.223,54.211 55.518 C 54.211 55.899,45.263 64.666,44.874 64.666 C 44.660 64.666,44.592 64.840,44.724 65.053 C 44.856 65.266,44.692 65.440,44.360 65.440 C 44.028 65.440,43.751 65.658,43.745 65.924 C 43.740 66.191,42.956 67.090,42.003 67.924 C 41.050 68.757,40.271 69.673,40.271 69.960 C 40.271 70.247,39.748 71.028,39.109 71.697 C 38.470 72.366,37.948 73.031,37.948 73.177 C 37.948 73.322,37.512 73.674,36.980 73.959 C 36.447 74.244,36.012 74.758,36.012 75.101 C 36.012 75.444,35.663 75.976,35.237 76.283 C 34.811 76.590,34.463 77.064,34.463 77.336 C 34.463 77.609,34.201 77.832,33.882 77.832 C 33.562 77.832,33.301 78.116,33.301 78.464 C 33.301 78.811,32.995 79.378,32.621 79.722 C 32.247 80.067,31.680 80.871,31.362 81.510 C 31.044 82.149,30.392 82.989,29.913 83.378 C 29.434 83.766,29.042 84.339,29.042 84.652 C 29.042 84.965,28.693 85.595,28.267 86.052 C 27.841 86.510,27.493 87.157,27.493 87.492 C 27.493 87.827,27.155 88.311,26.742 88.569 C 26.329 88.827,25.699 89.653,25.343 90.405 C 24.986 91.157,24.540 91.772,24.351 91.772 C 24.162 91.772,24.008 92.120,24.008 92.546 C 24.008 92.976,23.750 93.320,23.427 93.320 C 23.081 93.320,22.846 93.677,22.846 94.203 C 22.846 94.688,22.498 95.337,22.072 95.644 C 21.646 95.951,21.297 96.502,21.297 96.868 C 21.297 97.234,21.123 97.642,20.910 97.773 C 20.697 97.905,20.523 98.351,20.523 98.764 C 20.523 99.187,20.258 99.516,19.919 99.516 C 19.587 99.516,19.414 99.676,19.535 99.872 C 19.656 100.068,19.529 100.460,19.251 100.743 C 18.974 101.027,18.516 101.825,18.233 102.517 C 17.950 103.209,17.565 103.775,17.378 103.775 C 17.191 103.775,17.038 104.190,17.038 104.696 C 17.038 105.202,16.778 105.832,16.461 106.095 C 16.144 106.358,15.980 106.728,16.097 106.917 C 16.214 107.106,16.037 107.260,15.705 107.260 C 15.274 107.260,15.102 107.646,15.102 108.616 C 15.102 109.361,14.927 109.971,14.714 109.971 C 14.501 109.971,14.327 110.319,14.327 110.745 C 14.327 111.171,14.153 111.520,13.940 111.520 C 13.727 111.520,13.553 111.955,13.553 112.488 C 13.553 113.020,13.379 113.456,13.166 113.456 C 12.953 113.456,12.778 113.892,12.778 114.424 C 12.778 114.956,12.555 115.392,12.282 115.392 C 12.009 115.392,11.746 115.871,11.698 116.457 C 11.649 117.043,11.437 117.580,11.226 117.651 C 11.015 117.722,10.842 118.211,10.842 118.739 C 10.842 119.279,10.673 119.593,10.455 119.458 C 10.225 119.315,10.068 119.777,10.068 120.597 C 10.068 121.355,9.894 121.975,9.681 121.975 C 9.468 121.975,9.293 122.566,9.293 123.289 C 9.293 124.099,9.071 124.688,8.712 124.825 C 8.393 124.948,8.132 125.479,8.132 126.006 C 8.132 126.532,7.957 127.071,7.744 127.202 C 7.531 127.334,7.357 127.954,7.357 128.580 C 7.357 129.207,7.183 129.719,6.970 129.719 C 6.757 129.719,6.583 130.329,6.583 131.075 C 6.583 131.820,6.409 132.430,6.196 132.430 C 5.983 132.430,5.808 133.021,5.808 133.744 C 5.808 134.554,5.586 135.143,5.227 135.280 C 4.844 135.428,4.647 136.034,4.647 137.064 C 4.647 137.923,4.472 138.625,4.259 138.625 C 4.046 138.625,3.872 139.399,3.872 140.345 C 3.872 141.291,3.698 142.172,3.485 142.304 C 3.272 142.436,3.098 143.404,3.098 144.457 C 3.098 145.509,2.924 146.370,2.711 146.370 C 2.498 146.370,2.323 147.334,2.323 148.512 C 2.323 149.952,2.152 150.719,1.801 150.854 C 1.440 150.992,1.253 151.918,1.197 153.831 C 1.152 155.358,0.970 156.787,0.791 157.006 C 0.612 157.226,0.338 160.778,0.182 164.901 L -0.102 172.395 0.704 171.964 C 1.147 171.727,1.749 171.191,2.042 170.772 C 2.335 170.354,6.395 166.042,11.063 161.191 C 15.731 156.341,20.856 150.978,22.451 149.274 C 24.046 147.570,27.271 144.168,29.617 141.714 C 31.962 139.260,35.712 135.338,37.948 133.000 C 40.184 130.661,45.063 125.530,48.790 121.598 C 57.656 112.245,64.463 105.138,70.498 98.935 C 73.191 96.167,76.843 91.985,78.612 89.642 C 85.088 81.067,94.446 71.400,101.272 66.236 C 103.165 64.804,103.528 64.783,104.115 66.071 C 104.370 66.631,104.691 66.977,104.829 66.839 C 104.967 66.702,104.873 66.383,104.621 66.131 C 103.505 65.015,104.125 64.009,107.357 61.688 C 121.229 51.726,140.012 43.079,156.438 39.093 C 166.431 36.667,169.535 36.129,183.543 34.392 C 188.353 33.796,207.081 33.803,211.810 34.403 C 213.833 34.659,216.970 35.044,218.780 35.258 C 222.254 35.668,224.377 36.015,229.429 36.998 C 245.763 40.176,261.972 45.980,276.089 53.707 C 277.686 54.582,279.777 55.717,280.736 56.230 C 283.200 57.549,284.384 58.242,284.608 58.498 C 284.714 58.620,286.108 59.558,287.706 60.583 C 305.978 72.304,322.729 92.458,329.882 111.326 C 330.366 112.604,330.916 113.998,331.103 114.424 C 331.517 115.366,333.882 122.662,334.555 125.073 C 334.823 126.031,335.264 127.599,335.535 128.558 C 336.502 131.971,337.513 136.657,338.834 143.853 C 342.529 163.982,342.774 192.062,339.394 208.132 C 338.460 212.571,338.075 214.513,337.797 216.176 C 337.663 216.980,337.402 217.731,337.218 217.844 C 337.034 217.958,336.882 218.433,336.880 218.900 C 336.877 219.800,334.433 227.415,333.782 228.552 C 333.571 228.922,333.398 229.395,333.398 229.603 C 333.398 230.222,329.872 237.400,328.487 239.601 C 327.780 240.723,327.202 241.723,327.202 241.823 C 327.202 241.923,326.953 242.312,326.649 242.687 C 326.344 243.062,325.052 244.763,323.776 246.467 C 320.028 251.474,313.076 258.239,307.841 261.973 C 306.670 262.809,305.374 263.800,304.961 264.176 C 304.548 264.552,304.039 264.860,303.830 264.860 C 303.620 264.860,303.174 265.103,302.838 265.401 C 301.371 266.699,287.490 273.766,286.406 273.766 C 286.141 273.766,285.759 273.904,285.557 274.074 C 285.354 274.243,284.492 274.606,283.640 274.880 C 282.788 275.154,280.958 275.777,279.574 276.265 C 276.489 277.352,272.441 278.500,266.547 279.959 C 264.865 280.375,264.812 280.460,262.534 286.350 C 261.662 288.604,259.301 294.611,258.957 295.450 C 258.739 295.983,258.426 296.767,258.263 297.193 C 257.892 298.156,255.970 303.115,255.561 304.163 C 255.394 304.589,254.997 305.547,254.678 306.292 C 254.359 307.038,253.713 308.606,253.243 309.777 C 252.773 310.949,252.209 312.343,251.990 312.875 C 251.770 313.408,251.458 314.192,251.295 314.618 C 251.133 315.044,250.546 316.399,249.992 317.629 C 249.437 318.860,248.984 319.944,248.984 320.040 C 248.984 320.135,248.446 321.393,247.788 322.836 C 238.023 344.274,227.773 353.907,213.262 355.283 C 211.595 355.441,210.649 355.703,210.649 356.005 C 210.649 356.265,209.984 357.166,209.172 358.007 C 208.360 358.848,204.309 363.025,200.169 367.289 C 190.254 377.503,182.217 386.004,182.068 386.434 C 181.727 387.418,223.539 387.519,224.147 386.536 C 224.292 386.300,225.427 386.066,226.668 386.016 C 228.114 385.957,228.995 385.740,229.121 385.411 C 229.254 385.066,230.063 384.898,231.600 384.898 C 232.863 384.898,233.882 384.725,233.882 384.511 C 233.882 384.298,234.743 384.124,235.795 384.124 C 236.847 384.124,237.816 383.950,237.948 383.737 C 238.079 383.524,238.961 383.349,239.907 383.349 C 240.852 383.349,241.626 383.175,241.626 382.962 C 241.626 382.749,242.410 382.575,243.369 382.575 C 244.660 382.575,245.111 382.424,245.111 381.994 C 245.111 381.564,245.563 381.413,246.854 381.413 C 247.812 381.413,248.596 381.239,248.596 381.026 C 248.596 380.813,249.206 380.639,249.952 380.639 C 250.697 380.639,251.307 380.465,251.307 380.252 C 251.307 380.039,251.732 379.864,252.252 379.864 C 252.772 379.864,253.305 379.690,253.437 379.477 C 253.568 379.264,254.275 379.090,255.008 379.090 C 255.935 379.090,256.341 378.913,256.341 378.509 C 256.341 378.104,256.749 377.928,257.696 377.928 C 258.441 377.928,259.051 377.754,259.051 377.541 C 259.051 377.328,259.564 377.154,260.190 377.154 C 260.816 377.154,261.437 376.980,261.568 376.767 C 261.700 376.554,262.146 376.379,262.559 376.379 C 262.973 376.379,263.311 376.225,263.311 376.035 C 263.311 375.846,263.921 375.577,264.666 375.437 C 265.411 375.297,266.021 375.016,266.021 374.813 C 266.021 374.610,266.355 374.443,266.763 374.443 C 267.172 374.443,267.564 374.275,267.635 374.068 C 267.706 373.862,268.330 373.651,269.022 373.599 C 269.714 373.547,270.281 373.367,270.281 373.199 C 270.281 373.032,270.629 372.894,271.055 372.894 C 271.481 372.894,271.830 372.720,271.830 372.507 C 271.830 372.294,272.064 372.120,272.351 372.120 C 273.127 372.120,275.315 370.956,275.315 370.543 C 275.315 370.345,275.750 370.184,276.283 370.184 C 276.815 370.184,277.251 370.010,277.251 369.797 C 277.251 369.584,277.599 369.409,278.025 369.409 C 278.451 369.409,278.800 369.235,278.800 369.022 C 278.800 368.809,279.138 368.635,279.551 368.635 C 279.965 368.635,280.410 368.461,280.542 368.248 C 280.674 368.035,281.120 367.861,281.533 367.861 C 281.946 367.861,282.285 367.599,282.285 367.280 C 282.285 366.960,282.623 366.699,283.036 366.699 C 283.450 366.699,283.895 366.525,284.027 366.312 C 284.159 366.099,284.590 365.924,284.986 365.924 C 285.381 365.924,285.766 365.742,285.840 365.520 C 285.914 365.298,286.352 365.087,286.813 365.052 C 287.275 365.018,287.570 364.856,287.469 364.694 C 287.369 364.531,287.730 364.287,288.271 364.151 C 288.812 364.016,289.255 363.749,289.255 363.559 C 289.255 363.369,289.516 363.214,289.835 363.214 C 290.155 363.214,290.416 363.040,290.416 362.827 C 290.416 362.614,290.765 362.439,291.191 362.439 C 291.617 362.439,291.965 362.265,291.965 362.052 C 291.965 361.839,292.314 361.665,292.740 361.665 C 293.166 361.665,293.514 361.491,293.514 361.278 C 293.514 361.065,293.775 360.891,294.095 360.891 C 294.414 360.891,294.676 360.629,294.676 360.310 C 294.676 359.987,295.020 359.729,295.450 359.729 C 295.876 359.729,296.225 359.555,296.225 359.342 C 296.225 359.129,296.546 358.955,296.939 358.955 C 297.332 358.955,297.969 358.606,298.354 358.180 C 298.740 357.754,299.281 357.406,299.557 357.406 C 299.833 357.406,300.198 357.172,300.368 356.886 C 300.758 356.230,302.807 354.891,302.807 355.291 C 302.807 355.454,303.145 355.199,303.557 354.724 C 303.969 354.248,304.623 353.806,305.009 353.742 C 305.395 353.677,305.668 353.429,305.615 353.192 C 305.561 352.954,305.741 352.759,306.013 352.759 C 306.286 352.759,306.760 352.410,307.067 351.985 C 307.374 351.559,307.833 351.210,308.087 351.210 C 308.341 351.210,309.177 350.600,309.945 349.855 C 310.712 349.109,311.696 348.500,312.131 348.500 C 312.565 348.500,312.813 348.325,312.682 348.112 C 312.550 347.899,312.639 347.725,312.880 347.725 C 313.435 347.725,314.424 346.750,314.424 346.204 C 314.424 345.976,314.870 345.789,315.415 345.789 C 315.977 345.789,316.302 345.621,316.167 345.402 C 316.035 345.189,316.122 345.015,316.360 345.015 C 316.598 345.015,317.528 344.274,318.427 343.369 C 319.325 342.464,320.535 341.476,321.115 341.174 C 321.694 340.871,322.168 340.479,322.168 340.302 C 322.168 340.125,322.430 339.981,322.749 339.981 C 323.069 339.981,323.330 339.816,323.330 339.615 C 323.330 339.152,327.188 335.334,327.655 335.334 C 327.847 335.334,329.185 334.158,330.628 332.720 C 332.072 331.283,333.722 329.760,334.294 329.337 C 334.866 328.914,335.334 328.428,335.334 328.257 C 335.334 328.086,336.031 327.263,336.883 326.428 C 337.735 325.593,338.432 324.729,338.432 324.507 C 338.432 324.286,338.612 324.105,338.832 324.105 C 339.340 324.105,341.530 321.883,341.530 321.368 C 341.530 320.857,344.101 318.296,344.614 318.296 C 344.834 318.296,345.015 318.120,345.015 317.905 C 345.015 317.691,345.537 316.968,346.176 316.299 C 346.815 315.631,347.338 314.942,347.338 314.769 C 347.338 314.597,347.991 313.766,348.790 312.923 C 351.348 310.222,351.985 309.481,351.985 309.200 C 351.985 309.050,352.507 308.438,353.146 307.841 C 353.785 307.244,354.308 306.583,354.308 306.372 C 354.308 306.161,354.569 305.888,354.889 305.765 C 355.208 305.643,355.470 305.275,355.470 304.949 C 355.470 304.623,355.644 304.356,355.857 304.356 C 356.070 304.356,356.244 304.085,356.244 303.753 C 356.244 303.421,356.418 303.257,356.631 303.388 C 356.844 303.520,357.018 303.356,357.018 303.024 C 357.018 302.692,357.193 302.420,357.406 302.420 C 357.619 302.420,357.793 302.090,357.793 301.687 C 357.793 301.284,358.056 300.853,358.377 300.730 C 358.698 300.607,359.175 300.022,359.436 299.430 C 359.697 298.838,360.392 297.892,360.981 297.328 C 361.570 296.763,362.052 296.118,362.052 295.893 C 362.052 295.669,362.488 295.050,363.020 294.517 C 363.553 293.985,363.988 293.231,363.988 292.843 C 363.988 292.454,364.337 291.885,364.763 291.578 C 365.189 291.271,365.537 290.710,365.537 290.331 C 365.537 289.952,365.762 289.642,366.036 289.642 C 366.310 289.642,366.561 289.279,366.595 288.835 C 366.628 288.391,367.014 287.717,367.452 287.337 C 367.890 286.958,368.248 286.265,368.248 285.798 C 368.248 285.331,368.422 285.057,368.635 285.189 C 368.848 285.320,369.022 285.175,369.022 284.866 C 369.022 284.557,369.284 284.203,369.603 284.081 C 369.923 283.958,370.184 283.591,370.184 283.265 C 370.184 282.939,370.358 282.672,370.571 282.672 C 370.784 282.672,370.958 282.236,370.958 281.704 C 370.958 281.171,371.133 280.736,371.346 280.736 C 371.559 280.736,371.733 280.474,371.733 280.155 C 371.733 279.835,371.907 279.574,372.120 279.574 C 372.333 279.574,372.507 279.226,372.507 278.800 C 372.507 278.374,372.702 278.069,372.940 278.122 C 373.178 278.175,373.430 277.873,373.500 277.451 C 373.570 277.029,373.810 276.623,374.035 276.548 C 374.260 276.473,374.443 276.078,374.443 275.670 C 374.443 275.261,374.618 274.927,374.831 274.927 C 375.044 274.927,375.218 274.492,375.218 273.959 C 375.218 273.427,375.392 272.991,375.605 272.991 C 375.818 272.991,375.992 272.664,375.992 272.264 C 375.992 271.864,376.254 271.320,376.573 271.055 C 376.893 270.790,377.154 270.372,377.154 270.125 C 377.154 269.879,377.502 269.426,377.928 269.119 C 378.354 268.812,378.703 268.174,378.703 267.701 C 378.703 267.228,378.877 266.734,379.090 266.602 C 379.303 266.471,379.477 265.956,379.477 265.459 C 379.477 264.962,379.739 264.455,380.058 264.332 C 380.378 264.210,380.639 263.756,380.639 263.323 C 380.639 262.890,380.813 262.536,381.026 262.536 C 381.239 262.536,381.413 262.188,381.413 261.762 C 381.413 261.336,381.588 260.987,381.801 260.987 C 382.014 260.987,382.188 260.552,382.188 260.019 C 382.188 259.487,382.362 259.051,382.575 259.051 C 382.788 259.051,382.962 258.738,382.962 258.354 C 382.962 257.971,383.169 257.451,383.422 257.198 C 383.674 256.945,383.941 256.344,384.014 255.862 C 384.087 255.380,384.316 254.927,384.522 254.856 C 384.729 254.785,384.898 254.404,384.898 254.008 C 384.898 253.612,385.073 253.181,385.286 253.049 C 385.499 252.918,385.673 252.472,385.673 252.058 C 385.673 251.645,385.847 251.307,386.060 251.307 C 386.273 251.307,386.447 250.697,386.447 249.952 C 386.447 249.206,386.602 248.596,386.791 248.596 C 386.981 248.596,387.251 247.982,387.392 247.230 C 387.533 246.479,387.813 245.966,388.016 246.091 C 388.218 246.216,388.383 245.883,388.383 245.351 C 388.383 244.818,388.558 244.275,388.771 244.143 C 388.984 244.012,389.158 243.391,389.158 242.765 C 389.158 242.139,389.332 241.626,389.545 241.626 C 389.758 241.626,389.932 241.138,389.932 240.542 C 389.932 239.946,390.093 239.292,390.290 239.090 C 390.486 238.888,390.704 238.199,390.774 237.561 C 390.843 236.922,391.075 236.428,391.288 236.463 C 391.500 236.498,391.714 235.988,391.761 235.331 C 391.809 234.673,392.027 233.956,392.245 233.737 C 392.464 233.519,392.643 232.678,392.643 231.868 C 392.643 231.059,392.817 230.397,393.030 230.397 C 393.243 230.397,393.417 229.884,393.417 229.258 C 393.417 228.632,393.591 228.012,393.804 227.880 C 394.017 227.748,394.192 226.867,394.192 225.921 C 394.192 224.752,394.347 224.232,394.676 224.298 C 394.983 224.360,395.204 223.830,395.282 222.846 C 395.350 221.994,395.568 221.132,395.766 220.929 C 395.965 220.727,396.128 219.638,396.128 218.509 C 396.128 217.380,396.302 216.457,396.515 216.457 C 396.728 216.457,396.902 215.673,396.902 214.714 C 396.902 213.756,397.076 212.972,397.289 212.972 C 397.508 212.972,397.677 211.871,397.677 210.443 C 397.677 208.677,397.834 207.853,398.199 207.713 C 398.560 207.575,398.747 206.650,398.803 204.736 C 398.848 203.209,399.092 201.710,399.345 201.405 C 400.029 200.581,400.007 157.839,399.322 157.154 C 399.049 156.880,398.838 155.714,398.838 154.471 C 398.838 152.990,398.649 152.116,398.258 151.791 C 397.852 151.455,397.677 150.562,397.677 148.839 C 397.677 147.451,397.507 146.370,397.289 146.370 C 397.076 146.370,396.902 145.600,396.902 144.660 C 396.902 143.719,396.738 142.891,396.536 142.820 C 396.335 142.749,396.130 141.776,396.080 140.658 C 396.030 139.540,395.846 138.625,395.671 138.625 C 395.496 138.625,395.353 138.097,395.353 137.452 C 395.353 136.765,395.112 136.185,394.773 136.055 C 394.378 135.904,394.192 135.286,394.192 134.131 C 394.192 133.195,394.017 132.430,393.804 132.430 C 393.591 132.430,393.417 131.917,393.417 131.291 C 393.417 130.665,393.243 130.044,393.030 129.913 C 392.817 129.781,392.643 129.171,392.643 128.558 C 392.643 127.944,392.469 127.334,392.256 127.202 C 392.043 127.071,391.868 126.637,391.868 126.239 C 391.868 125.841,391.607 125.254,391.288 124.934 C 390.968 124.615,390.707 123.818,390.707 123.164 C 390.707 122.510,390.532 121.975,390.319 121.975 C 390.106 121.975,389.932 121.462,389.932 120.836 C 389.932 120.210,389.758 119.590,389.545 119.458 C 389.332 119.326,389.158 118.880,389.158 118.467 C 389.158 118.054,388.984 117.715,388.771 117.715 C 388.558 117.715,388.383 117.193,388.383 116.554 C 388.383 115.779,388.190 115.392,387.803 115.392 C 387.441 115.392,387.222 115.026,387.222 114.424 C 387.222 113.892,387.047 113.456,386.834 113.456 C 386.621 113.456,386.447 113.118,386.447 112.704 C 386.447 112.291,386.273 111.845,386.060 111.713 C 385.847 111.582,385.673 111.136,385.673 110.723 C 385.673 110.309,385.499 109.971,385.286 109.971 C 385.073 109.971,384.898 109.631,384.898 109.216 C 384.898 108.800,384.610 108.299,384.258 108.102 C 383.872 107.886,383.713 107.493,383.858 107.115 C 384.013 106.710,383.897 106.486,383.531 106.486 C 383.182 106.486,382.962 106.111,382.962 105.518 C 382.962 104.985,382.788 104.550,382.575 104.550 C 382.362 104.550,382.188 104.201,382.188 103.775 C 382.188 103.349,382.014 103.001,381.801 103.001 C 381.588 103.001,381.413 102.565,381.413 102.033 C 381.413 101.500,381.239 101.065,381.026 101.065 C 380.813 101.065,380.639 100.716,380.639 100.290 C 380.639 99.860,380.381 99.516,380.058 99.516 C 379.697 99.516,379.477 99.150,379.477 98.548 C 379.477 98.015,379.303 97.580,379.090 97.580 C 378.877 97.580,378.703 97.270,378.703 96.891 C 378.703 96.512,378.354 95.951,377.928 95.644 C 377.502 95.337,377.154 94.688,377.154 94.203 C 377.154 93.677,376.919 93.320,376.573 93.320 C 376.254 93.320,375.988 93.103,375.984 92.836 C 375.979 92.570,375.634 91.917,375.218 91.384 C 374.801 90.852,374.457 90.186,374.452 89.905 C 374.442 89.286,373.497 88.287,372.922 88.287 C 372.694 88.287,372.507 87.889,372.507 87.404 C 372.507 86.919,372.159 86.270,371.733 85.963 C 371.307 85.656,370.953 85.139,370.946 84.813 C 370.931 84.106,370.047 82.865,369.558 82.865 C 369.367 82.865,368.964 82.299,368.661 81.607 C 368.358 80.915,367.793 80.121,367.405 79.843 C 367.017 79.564,366.699 78.998,366.699 78.584 C 366.699 78.170,366.438 77.832,366.118 77.832 C 365.799 77.832,365.537 77.640,365.537 77.406 C 365.537 77.172,365.023 76.500,364.394 75.913 C 363.765 75.325,363.199 74.628,363.136 74.363 C 363.072 74.098,362.280 73.128,361.375 72.208 C 360.470 71.288,359.729 70.336,359.729 70.091 C 359.729 69.847,358.945 68.896,357.986 67.977 C 357.028 67.059,356.244 66.113,356.244 65.874 C 356.244 65.636,355.972 65.440,355.640 65.440 C 355.308 65.440,355.144 65.266,355.276 65.053 C 355.408 64.840,355.340 64.666,355.126 64.666 C 354.737 64.666,345.789 55.899,345.789 55.518 C 345.789 55.253,344.741 54.211,344.474 54.211 C 344.359 54.211,343.366 53.340,342.266 52.275 C 341.167 51.210,340.122 50.339,339.943 50.339 C 339.764 50.339,338.575 49.293,337.301 48.015 C 336.027 46.738,334.757 45.692,334.478 45.692 C 334.199 45.692,333.450 45.086,332.813 44.345 C 332.176 43.604,331.427 42.995,331.148 42.990 C 330.870 42.985,330.749 42.807,330.881 42.594 C 331.013 42.381,330.749 42.207,330.295 42.207 C 329.419 42.207,328.364 41.376,328.364 40.686 C 328.364 40.458,328.146 40.315,327.880 40.368 C 327.614 40.421,327.439 40.247,327.493 39.981 C 327.548 39.707,327.207 39.497,326.707 39.497 C 326.222 39.497,325.573 39.148,325.266 38.722 C 324.959 38.296,324.398 37.948,324.019 37.948 C 323.640 37.948,323.330 37.686,323.330 37.367 C 323.330 37.047,323.069 36.786,322.749 36.786 C 322.430 36.786,322.168 36.612,322.168 36.399 C 322.168 36.186,321.900 36.012,321.571 36.012 C 321.243 36.012,320.600 35.663,320.143 35.237 C 319.686 34.811,318.996 34.463,318.610 34.463 C 318.225 34.463,317.909 34.229,317.909 33.943 C 317.909 33.657,317.125 33.020,316.167 32.527 C 315.208 32.034,314.424 31.484,314.424 31.304 C 314.424 31.125,314.076 30.978,313.650 30.978 C 313.219 30.978,312.875 30.720,312.875 30.397 C 312.875 30.050,312.519 29.816,311.993 29.816 C 311.507 29.816,310.859 29.468,310.552 29.042 C 310.245 28.616,309.684 28.267,309.305 28.267 C 308.926 28.267,308.616 28.093,308.616 27.880 C 308.616 27.667,308.180 27.493,307.648 27.493 C 307.029 27.493,306.680 27.275,306.680 26.889 C 306.680 26.557,306.519 26.384,306.324 26.505 C 306.128 26.626,305.731 26.506,305.442 26.238 C 304.761 25.605,301.582 24.005,301.009 24.007 C 300.766 24.007,300.466 23.745,300.343 23.423 C 300.219 23.102,299.983 22.861,299.817 22.888 C 299.041 23.016,298.525 22.810,298.742 22.459 C 298.873 22.246,298.627 22.072,298.195 22.072 C 297.763 22.072,296.789 21.723,296.031 21.297 C 295.273 20.871,294.396 20.523,294.083 20.523 C 293.770 20.523,293.513 20.392,293.512 20.232 C 293.507 19.740,291.181 18.587,290.191 18.587 C 289.676 18.587,289.255 18.412,289.255 18.199 C 289.255 17.986,288.906 17.812,288.480 17.812 C 288.054 17.812,287.706 17.638,287.706 17.425 C 287.706 17.212,287.270 17.038,286.738 17.038 C 286.205 17.038,285.770 16.864,285.770 16.651 C 285.770 16.438,285.578 16.263,285.344 16.263 C 284.929 16.263,282.762 15.390,281.419 14.682 C 281.049 14.487,280.308 14.327,279.773 14.327 C 279.238 14.327,278.800 14.153,278.800 13.940 C 278.800 13.727,278.451 13.553,278.025 13.553 C 277.599 13.553,277.251 13.379,277.251 13.166 C 277.251 12.953,276.641 12.778,275.895 12.778 C 274.949 12.778,274.540 12.603,274.540 12.197 C 274.540 11.792,274.131 11.617,273.185 11.617 C 272.439 11.617,271.830 11.442,271.830 11.229 C 271.830 11.016,271.307 10.842,270.668 10.842 C 270.029 10.842,269.506 10.668,269.506 10.455 C 269.506 10.242,268.896 10.068,268.151 10.068 C 267.406 10.068,266.796 9.894,266.796 9.681 C 266.796 9.468,266.012 9.293,265.053 9.293 C 263.763 9.293,263.311 9.143,263.311 8.712 C 263.311 8.307,262.902 8.132,261.955 8.132 C 261.210 8.132,260.600 7.957,260.600 7.744 C 260.600 7.531,259.816 7.357,258.858 7.357 C 257.899 7.357,257.115 7.183,257.115 6.970 C 257.115 6.757,256.331 6.583,255.373 6.583 C 254.414 6.583,253.630 6.409,253.630 6.196 C 253.630 5.983,252.865 5.808,251.929 5.808 C 250.774 5.808,250.156 5.622,250.005 5.227 C 249.858 4.844,249.252 4.647,248.221 4.647 C 247.363 4.647,246.660 4.504,246.660 4.329 C 246.660 4.154,245.759 3.969,244.657 3.919 C 243.556 3.869,242.347 3.664,241.972 3.463 C 241.597 3.262,240.418 3.098,239.351 3.098 C 238.285 3.098,237.305 2.924,237.173 2.711 C 237.042 2.498,235.637 2.323,234.053 2.323 C 231.750 2.323,231.171 2.207,231.171 1.742 C 231.171 1.270,230.535 1.162,227.764 1.162 C 225.840 1.162,224.174 0.980,223.938 0.744 C 223.508 0.313,191.684 -0.049,181.420 0.260 M105.002 67.667 C 106.067 70.063,108.121 74.002,108.243 73.880 C 108.446 73.677,105.401 67.377,105.099 67.377 C 104.974 67.377,104.931 67.507,105.002 67.667 M108.487 74.637 C 109.552 77.033,111.606 80.972,111.728 80.850 C 111.931 80.647,108.886 74.347,108.584 74.347 C 108.459 74.347,108.416 74.477,108.487 74.637 M111.972 81.607 C 113.037 84.003,115.091 87.942,115.213 87.820 C 115.416 87.617,112.371 81.317,112.069 81.317 C 111.944 81.317,111.901 81.447,111.972 81.607 M115.457 88.577 C 116.522 90.973,118.576 94.912,118.698 94.790 C 118.901 94.587,115.856 88.287,115.554 88.287 C 115.429 88.287,115.386 88.417,115.457 88.577 M118.942 95.568 C 119.707 97.419,126.330 110.392,126.448 110.274 C 126.643 110.079,119.314 95.257,119.022 95.257 C 118.907 95.257,118.871 95.397,118.942 95.568 M126.621 110.844 C 126.621 111.221,129.795 117.382,129.923 117.253 C 130.105 117.071,127.062 110.745,126.793 110.745 C 126.699 110.745,126.621 110.790,126.621 110.844 M130.106 117.814 C 130.106 118.191,133.280 124.352,133.408 124.223 C 133.590 124.041,130.547 117.715,130.278 117.715 C 130.184 117.715,130.106 117.760,130.106 117.814 M133.591 124.784 C 133.591 125.161,136.765 131.322,136.893 131.193 C 137.075 131.011,134.032 124.685,133.763 124.685 C 133.669 124.685,133.591 124.730,133.591 124.784 M137.141 131.946 C 138.206 134.342,140.261 138.281,140.382 138.159 C 140.586 137.956,137.540 131.655,137.238 131.655 C 137.114 131.655,137.070 131.786,137.141 131.946 M140.626 138.916 C 141.818 141.597,144.504 146.816,144.629 146.691 C 144.834 146.485,141.024 138.625,140.718 138.625 C 140.597 138.625,140.555 138.756,140.626 138.916 M144.821 147.243 C 144.821 147.620,147.994 153.780,148.123 153.652 C 148.304 153.470,145.262 147.144,144.993 147.144 C 144.898 147.144,144.821 147.189,144.821 147.243 M148.318 154.167 C 148.311 154.302,148.566 154.912,148.884 155.522 C 149.202 156.132,149.464 156.360,149.465 156.028 C 149.467 155.460,148.345 153.638,148.318 154.167 M204.259 214.216 C 193.160 215.920,183.559 221.043,176.666 228.939 C 174.155 231.815,169.990 239.063,169.990 240.557 C 169.990 240.847,169.848 241.250,169.674 241.452 C 169.235 241.962,168.569 245.063,168.036 249.080 C 165.753 266.301,179.389 287.556,197.289 294.677 C 214.315 301.449,234.554 294.324,245.788 277.602 C 252.584 267.487,255.830 254.244,253.600 245.737 C 253.370 244.860,253.001 243.446,252.781 242.594 C 251.389 237.214,247.752 231.225,243.045 226.562 C 239.466 223.017,236.194 220.707,231.752 218.591 C 226.553 216.114,224.266 215.423,217.070 214.151 C 214.373 213.675,207.559 213.709,204.259 214.216 " stroke="none" fill="#e53441" fill-rule="evenodd" data-darkreader-inline-fill="" data-darkreader-inline-stroke="" style="--darkreader-inline-fill:#a71520; --darkreader-inline-stroke:none;"></path><path id="SvgjsPath1002" d="M279.522 57.599 C 279.091 58.691,276.740 65.243,274.555 71.442 C 273.880 73.359,273.178 75.276,272.997 75.702 C 272.684 76.435,272.109 78.025,269.705 84.802 C 269.139 86.399,267.891 89.884,266.932 92.546 C 262.739 104.189,261.629 107.282,260.401 110.745 C 259.683 112.769,258.460 116.167,257.681 118.296 C 256.903 120.426,256.123 122.604,255.949 123.136 C 255.774 123.669,254.990 125.847,254.206 127.977 C 253.422 130.106,252.638 132.285,252.464 132.817 C 252.289 133.349,251.503 135.528,250.718 137.657 C 249.932 139.787,249.195 141.878,249.080 142.304 C 248.966 142.730,248.743 143.253,248.585 143.466 C 247.140 145.418,247.607 146.179,251.770 148.665 C 286.094 169.157,296.106 207.296,278.052 248.790 C 277.867 249.216,277.349 250.390,276.902 251.399 C 276.455 252.409,276.089 253.319,276.089 253.422 C 276.089 253.525,275.673 254.529,275.165 255.653 C 273.194 260.014,272.604 261.373,272.604 261.553 C 272.604 261.656,272.150 262.747,271.596 263.978 C 271.041 265.208,270.449 266.563,270.280 266.989 C 270.111 267.415,269.707 268.374,269.382 269.119 C 267.878 272.573,265.247 279.177,265.247 279.499 C 265.247 280.320,278.639 276.604,284.790 274.075 C 285.861 273.635,287.433 272.993,288.283 272.649 C 295.202 269.849,302.721 265.456,310.233 259.826 C 321.928 251.060,331.730 236.240,336.100 220.716 C 336.370 219.758,336.811 218.190,337.080 217.231 C 337.349 216.273,337.777 214.443,338.032 213.166 C 338.286 211.888,338.639 210.145,338.816 209.293 C 342.039 193.752,342.197 170.169,339.227 148.112 C 338.797 144.920,337.791 139.584,336.824 135.371 C 336.380 133.434,335.880 131.239,335.713 130.494 C 333.954 122.610,329.948 111.263,326.416 104.163 C 323.870 99.043,323.015 97.567,319.981 93.052 C 310.978 79.656,298.440 67.545,284.435 58.718 C 280.477 56.223,280.099 56.137,279.522 57.599 M61.568 187.981 C 61.568 189.112,64.696 202.087,66.099 206.776 C 68.467 214.687,71.992 224.822,73.625 228.412 C 74.049 229.344,74.742 230.985,75.166 232.060 C 86.215 260.090,105.986 277.799,133.011 283.871 C 136.233 284.595,147.601 286.533,147.795 286.391 C 147.855 286.347,146.569 283.203,144.136 277.444 C 142.953 274.647,137.955 264.757,135.329 260.019 C 126.683 244.420,122.692 233.586,121.652 222.898 L 121.394 220.240 118.555 218.736 C 116.994 217.909,114.676 216.622,113.404 215.876 C 112.132 215.131,111.010 214.521,110.911 214.521 C 110.811 214.521,110.080 214.113,109.286 213.614 C 108.491 213.115,106.273 211.868,104.356 210.842 C 102.439 209.817,100.436 208.694,99.903 208.346 C 99.371 207.998,97.977 207.213,96.805 206.603 C 95.634 205.992,94.213 205.172,93.648 204.779 C 93.083 204.387,92.529 204.066,92.418 204.066 C 92.308 204.066,90.418 203.049,88.219 201.806 C 86.020 200.563,83.262 199.021,82.091 198.378 C 80.920 197.736,79.351 196.864,78.606 196.442 C 77.861 196.020,76.467 195.235,75.508 194.697 C 74.550 194.160,73.118 193.353,72.326 192.904 C 71.533 192.456,69.782 191.482,68.432 190.741 C 67.083 189.999,65.205 188.950,64.258 188.409 C 62.293 187.286,61.568 187.170,61.568 187.981 " stroke="none" fill="#5fb7ba" fill-rule="evenodd" data-darkreader-inline-fill="" data-darkreader-inline-stroke="" style="--darkreader-inline-fill:#398184; --darkreader-inline-stroke:none;"></path><path id="SvgjsPath1001" d="M101.272 66.236 C 98.280 68.500,90.704 75.528,87.641 78.883 C 78.924 88.428,74.289 94.879,69.617 103.969 C 66.793 109.464,63.528 118.325,62.136 124.271 C 61.808 125.670,61.379 127.425,61.183 128.170 C 60.986 128.916,60.733 130.136,60.619 130.881 C 60.505 131.626,60.032 134.676,59.567 137.657 C 58.414 145.061,58.297 164.983,59.360 173.088 C 61.185 187.010,61.189 187.024,63.430 188.069 C 64.429 188.535,66.292 189.506,67.570 190.228 C 70.939 192.129,73.322 193.470,75.411 194.643 C 76.423 195.210,77.861 196.020,78.606 196.442 C 79.351 196.864,80.920 197.736,82.091 198.378 C 83.262 199.021,86.020 200.563,88.219 201.806 C 90.418 203.049,92.308 204.066,92.418 204.066 C 92.529 204.066,93.083 204.387,93.648 204.779 C 94.213 205.172,95.634 205.992,96.805 206.603 C 97.977 207.213,99.371 207.998,99.903 208.346 C 100.436 208.694,102.439 209.817,104.356 210.842 C 106.273 211.868,108.491 213.115,109.286 213.614 C 110.080 214.113,110.813 214.521,110.914 214.521 C 111.016 214.521,112.021 215.066,113.148 215.732 C 117.327 218.201,120.865 219.956,121.221 219.736 C 121.423 219.611,121.589 217.298,121.591 214.595 C 121.594 210.341,122.207 203.710,122.887 200.581 C 126.911 182.067,134.516 168.820,146.832 158.867 C 148.790 157.285,149.358 156.612,149.155 156.115 C 147.768 152.715,103.561 65.056,103.237 65.064 C 103.001 65.070,102.116 65.598,101.272 66.236 M340.583 197.414 C 340.424 198.121,340.389 198.795,340.506 198.912 C 340.797 199.203,341.259 197.247,341.045 196.628 C 340.949 196.353,340.741 196.707,340.583 197.414 M339.899 202.517 C 339.217 207.919,339.196 208.619,339.798 205.808 C 340.118 204.318,340.332 202.488,340.273 201.742 C 340.185 200.617,340.122 200.748,339.899 202.517 M338.625 209.874 C 338.478 210.544,338.445 211.178,338.552 211.285 C 338.658 211.391,338.866 210.931,339.013 210.261 C 339.160 209.592,339.193 208.957,339.086 208.851 C 338.980 208.744,338.772 209.205,338.625 209.874 M337.851 213.746 C 337.704 214.416,337.671 215.051,337.777 215.157 C 337.884 215.264,338.091 214.803,338.238 214.134 C 338.385 213.464,338.418 212.829,338.312 212.723 C 338.205 212.616,337.998 213.077,337.851 213.746 M337.315 216.328 C 337.290 216.577,337.157 217.100,337.019 217.490 C 336.825 218.040,336.877 218.100,337.249 217.757 C 337.514 217.513,337.647 216.990,337.545 216.595 C 337.443 216.200,337.340 216.080,337.315 216.328 M336.400 219.361 C 335.727 222.554,335.716 222.784,336.311 221.174 C 336.651 220.255,336.866 219.209,336.787 218.851 C 336.699 218.447,336.552 218.641,336.400 219.361 M332.929 229.826 C 332.809 230.247,332.593 230.939,332.449 231.365 C 332.305 231.791,332.470 231.650,332.817 231.051 C 333.163 230.453,333.379 229.760,333.297 229.512 C 333.214 229.264,333.048 229.406,332.929 229.826 M328.795 238.533 C 328.318 239.382,328.008 240.077,328.107 240.077 C 328.369 240.077,329.970 237.295,329.804 237.129 C 329.727 237.052,329.273 237.683,328.795 238.533 M323.869 245.863 C 322.614 247.555,319.455 251.071,316.849 253.677 C 314.243 256.284,312.163 258.469,312.228 258.533 C 312.685 258.991,322.758 248.175,325.257 244.543 C 327.211 241.704,326.341 242.531,323.869 245.863 M309.971 260.057 C 308.783 261.117,308.701 261.255,309.618 260.650 C 310.699 259.938,312.024 258.655,311.664 258.670 C 311.585 258.673,310.823 259.297,309.971 260.057 M306.006 262.868 C 303.638 264.581,303.327 264.862,303.808 264.853 C 304.003 264.849,304.685 264.423,305.324 263.907 C 305.963 263.391,306.922 262.616,307.454 262.184 C 309.064 260.880,308.168 261.303,306.006 262.868 M301.065 266.107 C 300.000 266.760,297.909 267.964,296.418 268.782 C 294.927 269.600,293.882 270.268,294.095 270.266 C 294.450 270.263,296.744 269.067,300.678 266.833 C 302.059 266.048,303.652 264.812,303.181 264.889 C 303.082 264.906,302.130 265.454,301.065 266.107 M288.287 272.578 C 287.435 272.968,286.166 273.505,285.467 273.772 C 284.768 274.039,284.289 274.350,284.402 274.464 C 284.516 274.577,285.001 274.493,285.480 274.276 C 288.657 272.838,290.555 271.876,290.223 271.872 C 290.010 271.870,289.138 272.187,288.287 272.578 M277.638 276.514 C 277.106 276.702,275.886 277.111,274.927 277.422 C 273.969 277.734,273.434 277.997,273.738 278.007 C 274.309 278.026,276.051 277.515,278.412 276.634 C 279.158 276.356,279.506 276.139,279.187 276.150 C 278.867 276.162,278.170 276.326,277.638 276.514 M271.442 278.412 C 270.645 278.668,270.611 278.728,271.249 278.755 C 271.675 278.773,272.285 278.619,272.604 278.412 C 273.283 277.974,272.811 277.974,271.442 278.412 M268.345 279.187 C 267.828 279.520,267.828 279.562,268.345 279.562 C 268.664 279.562,269.187 279.393,269.506 279.187 C 270.023 278.853,270.023 278.811,269.506 278.811 C 269.187 278.811,268.664 278.980,268.345 279.187 M265.247 279.979 C 264.823 280.266,264.979 280.302,265.828 280.112 C 267.251 279.794,267.561 279.572,266.570 279.580 C 266.162 279.583,265.566 279.763,265.247 279.979 " stroke="none" fill="#c4148c" fill-rule="evenodd" data-darkreader-inline-fill="" data-darkreader-inline-stroke="" style="--darkreader-inline-fill:#9d1070; --darkreader-inline-stroke:none;"></path><path id="SvgjsPath1000" d="M288.093 60.915 C 288.093 61.009,289.356 62.007,290.900 63.132 C 292.444 64.258,293.489 64.914,293.222 64.590 C 292.679 63.933,288.093 60.647,288.093 60.915 M298.326 68.826 C 298.949 69.515,299.545 69.994,299.649 69.889 C 299.753 69.785,299.766 69.656,299.677 69.603 C 299.589 69.550,298.993 69.071,298.354 68.540 L 297.193 67.573 298.326 68.826 M303.083 73.074 C 304.651 74.610,307.190 77.150,308.727 78.717 C 310.263 80.285,311.084 81.037,310.552 80.388 C 309.414 79.002,303.036 72.647,301.380 71.249 C 300.749 70.716,301.515 71.538,303.083 73.074 M311.713 82.212 C 311.713 82.279,312.269 82.845,312.947 83.471 L 314.181 84.608 313.238 83.371 C 312.436 82.320,311.713 81.771,311.713 82.212 M317.909 90.029 C 318.568 90.987,319.195 91.772,319.301 91.772 C 319.408 91.772,318.956 90.987,318.296 90.029 C 317.637 89.071,317.010 88.287,316.904 88.287 C 316.797 88.287,317.250 89.071,317.909 90.029 M321.819 95.814 C 322.266 96.572,322.707 97.193,322.797 97.193 C 323.073 97.193,321.816 94.936,321.396 94.677 C 321.181 94.544,321.371 95.056,321.819 95.814 M62.730 106.972 C 56.447 113.590,49.216 121.190,46.660 123.860 C 44.105 126.529,40.184 130.635,37.948 132.983 C 35.712 135.331,31.962 139.260,29.617 141.714 C 27.271 144.168,24.046 147.570,22.451 149.274 C 18.375 153.628,2.775 169.925,1.258 171.413 L 0.000 172.649 0.037 182.646 C 0.069 191.556,0.250 195.697,1.011 204.962 C 1.155 206.722,1.409 207.670,1.775 207.811 C 2.169 207.962,2.323 208.719,2.323 210.496 C 2.323 211.889,2.493 212.972,2.711 212.972 C 2.926 212.972,3.098 214.005,3.098 215.295 C 3.098 216.586,3.270 217.619,3.485 217.619 C 3.698 217.619,3.872 218.403,3.872 219.361 C 3.872 220.319,4.046 221.104,4.259 221.104 C 4.472 221.104,4.647 221.782,4.647 222.611 C 4.647 223.594,4.849 224.196,5.227 224.341 C 5.627 224.495,5.808 225.119,5.808 226.342 C 5.808 227.428,5.959 228.026,6.196 227.880 C 6.432 227.734,6.583 228.328,6.583 229.406 C 6.583 230.377,6.757 231.171,6.970 231.171 C 7.183 231.171,7.357 231.781,7.357 232.527 C 7.357 233.272,7.531 233.882,7.744 233.882 C 7.957 233.882,8.132 234.410,8.132 235.056 C 8.132 235.742,8.373 236.322,8.712 236.452 C 9.071 236.590,9.293 237.178,9.293 237.989 C 9.293 238.712,9.468 239.303,9.681 239.303 C 9.894 239.303,10.068 239.826,10.068 240.465 C 10.068 241.104,10.242 241.626,10.455 241.626 C 10.668 241.626,10.842 242.236,10.842 242.982 C 10.842 243.727,11.016 244.337,11.229 244.337 C 11.442 244.337,11.617 244.702,11.617 245.148 C 11.617 245.983,12.745 248.302,13.262 248.532 C 13.422 248.603,13.553 249.256,13.553 249.984 C 13.553 250.712,13.727 251.307,13.940 251.307 C 14.153 251.307,14.327 251.742,14.327 252.275 C 14.327 252.807,14.501 253.243,14.714 253.243 C 14.927 253.243,15.102 253.766,15.102 254.405 C 15.102 255.044,15.257 255.566,15.447 255.566 C 15.637 255.566,15.901 256.002,16.035 256.534 C 16.169 257.067,16.449 257.502,16.658 257.502 C 16.867 257.502,17.038 257.851,17.038 258.277 C 17.038 258.703,17.212 259.051,17.425 259.051 C 17.638 259.051,17.812 259.487,17.812 260.019 C 17.812 260.552,17.986 260.987,18.199 260.987 C 18.412 260.987,18.587 261.322,18.587 261.730 C 18.587 262.526,19.751 264.968,20.232 265.182 C 20.392 265.253,20.523 265.645,20.523 266.054 C 20.523 266.462,20.697 266.796,20.910 266.796 C 21.123 266.796,21.297 267.051,21.297 267.363 C 21.297 267.675,21.738 268.720,22.278 269.686 C 22.817 270.652,23.156 271.442,23.032 271.442 C 22.908 271.442,23.251 271.854,23.794 272.358 C 24.338 272.862,24.782 273.646,24.782 274.101 C 24.782 274.555,24.956 274.927,25.169 274.927 C 25.382 274.927,25.557 275.276,25.557 275.702 C 25.557 276.128,25.731 276.476,25.944 276.476 C 26.157 276.476,26.331 276.716,26.331 277.010 C 26.331 277.303,26.592 277.760,26.912 278.025 C 27.231 278.290,27.493 278.796,27.493 279.149 C 27.493 279.502,27.841 280.041,28.267 280.348 C 28.693 280.656,29.042 281.224,29.042 281.612 C 29.042 282.000,29.219 282.528,29.436 282.785 C 31.310 285.005,31.751 285.665,31.752 286.254 C 31.752 286.626,31.926 286.931,32.139 286.931 C 32.352 286.931,32.527 287.216,32.527 287.565 C 32.527 287.913,32.962 288.601,33.495 289.095 C 34.027 289.588,34.463 290.223,34.463 290.506 C 34.463 290.789,34.811 291.271,35.237 291.578 C 35.663 291.885,36.012 292.492,36.012 292.927 C 36.012 293.362,36.447 294.045,36.980 294.444 C 37.512 294.844,37.948 295.506,37.948 295.914 C 37.948 296.323,38.122 296.550,38.335 296.418 C 38.548 296.287,38.722 296.412,38.722 296.697 C 38.722 296.982,39.071 297.466,39.497 297.773 C 39.923 298.080,40.277 298.598,40.283 298.924 C 40.299 299.690,41.198 300.871,41.766 300.871 C 42.009 300.871,42.207 301.220,42.207 301.646 C 42.207 302.072,42.381 302.420,42.594 302.420 C 42.807 302.420,42.982 302.643,42.982 302.915 C 42.982 303.188,43.330 303.662,43.756 303.969 C 44.182 304.276,44.530 304.711,44.530 304.937 C 44.530 305.162,44.835 305.623,45.208 305.961 C 45.581 306.300,46.409 307.221,47.047 308.008 C 47.686 308.795,48.427 309.677,48.693 309.968 C 48.959 310.258,49.177 310.613,49.177 310.756 C 49.177 310.899,49.692 311.496,50.320 312.083 C 50.949 312.671,51.515 313.380,51.579 313.659 C 51.642 313.938,53.045 315.531,54.695 317.199 C 56.346 318.867,57.696 320.414,57.696 320.637 C 57.696 320.859,60.048 323.400,62.924 326.284 C 65.799 329.167,68.151 331.686,68.151 331.881 C 68.151 332.076,68.282 332.238,68.441 332.240 C 68.601 332.243,69.603 333.026,70.668 333.982 C 73.208 336.261,73.497 336.496,73.767 336.496 C 74.070 336.496,75.895 338.331,75.895 338.635 C 75.895 338.991,76.952 339.981,77.331 339.981 C 77.512 339.981,77.912 340.329,78.219 340.755 C 78.526 341.181,79.007 341.530,79.289 341.530 C 79.571 341.530,80.767 342.488,81.948 343.659 C 83.129 344.831,84.428 345.789,84.835 345.789 C 85.243 345.789,85.576 345.987,85.576 346.228 C 85.576 346.798,87.554 348.498,88.217 348.499 C 88.760 348.500,89.835 349.418,89.835 349.881 C 89.835 350.287,91.110 351.184,91.707 351.198 C 91.991 351.205,92.816 351.820,93.539 352.565 C 94.263 353.311,95.040 353.921,95.266 353.921 C 95.492 353.921,96.050 354.269,96.507 354.695 C 96.965 355.121,97.567 355.470,97.846 355.470 C 98.126 355.470,98.354 355.644,98.354 355.857 C 98.354 356.070,98.541 356.244,98.769 356.244 C 98.997 356.244,99.427 356.462,99.724 356.728 C 100.891 357.775,101.304 358.050,102.517 358.587 C 103.209 358.893,103.775 359.275,103.775 359.436 C 103.775 359.597,104.124 359.729,104.550 359.729 C 104.980 359.729,105.324 359.987,105.324 360.310 C 105.324 360.629,105.586 360.891,105.905 360.891 C 106.225 360.891,106.486 361.065,106.486 361.278 C 106.486 361.491,106.834 361.665,107.260 361.665 C 107.686 361.665,108.035 361.839,108.035 362.052 C 108.035 362.265,108.340 362.440,108.712 362.440 C 109.301 362.440,109.961 362.881,112.181 364.755 C 112.438 364.972,113.005 365.150,113.440 365.150 C 113.875 365.150,114.230 365.324,114.230 365.537 C 114.230 365.750,114.579 365.924,115.005 365.924 C 115.431 365.924,115.779 366.099,115.779 366.312 C 115.779 366.525,116.196 366.699,116.706 366.699 C 117.216 366.699,117.733 366.960,117.855 367.280 C 117.978 367.599,118.345 367.861,118.671 367.861 C 118.997 367.861,119.264 368.035,119.264 368.248 C 119.264 368.461,119.700 368.635,120.232 368.635 C 120.765 368.635,121.200 368.809,121.200 369.022 C 121.200 369.235,121.549 369.409,121.975 369.409 C 122.401 369.409,122.749 369.584,122.749 369.797 C 122.749 370.010,123.166 370.184,123.676 370.184 C 124.186 370.184,124.707 370.456,124.835 370.789 C 124.963 371.122,125.244 371.285,125.460 371.152 C 125.676 371.019,125.957 371.182,126.085 371.515 C 126.213 371.848,126.734 372.120,127.244 372.120 C 127.753 372.120,128.170 372.294,128.170 372.507 C 128.170 372.720,128.509 372.894,128.922 372.894 C 129.335 372.894,129.781 373.069,129.913 373.282 C 130.044 373.495,130.665 373.669,131.291 373.669 C 131.917 373.669,132.430 373.843,132.430 374.056 C 132.430 374.269,132.760 374.443,133.163 374.443 C 133.566 374.443,133.996 374.705,134.119 375.024 C 134.249 375.364,134.829 375.605,135.515 375.605 C 136.161 375.605,136.689 375.779,136.689 375.992 C 136.689 376.205,137.125 376.379,137.657 376.379 C 138.190 376.379,138.625 376.554,138.625 376.767 C 138.625 376.980,139.148 377.154,139.787 377.154 C 140.426 377.154,140.949 377.328,140.949 377.541 C 140.949 377.754,141.559 377.928,142.304 377.928 C 143.251 377.928,143.659 378.104,143.659 378.509 C 143.659 378.915,144.068 379.090,145.015 379.090 C 145.760 379.090,146.370 379.264,146.370 379.477 C 146.370 379.690,146.882 379.864,147.509 379.864 C 148.135 379.864,148.755 380.039,148.887 380.252 C 149.018 380.465,149.639 380.639,150.265 380.639 C 150.891 380.639,151.404 380.813,151.404 381.026 C 151.404 381.239,152.188 381.413,153.146 381.413 C 154.437 381.413,154.889 381.564,154.889 381.994 C 154.889 382.424,155.340 382.575,156.631 382.575 C 157.590 382.575,158.374 382.749,158.374 382.962 C 158.374 383.175,159.158 383.349,160.116 383.349 C 161.075 383.349,161.859 383.524,161.859 383.737 C 161.859 383.950,162.643 384.124,163.601 384.124 C 164.560 384.124,165.344 384.298,165.344 384.511 C 165.344 384.729,166.427 384.898,167.819 384.898 C 169.662 384.898,170.352 385.047,170.518 385.479 C 170.684 385.913,171.379 386.060,173.270 386.060 C 174.697 386.060,175.799 386.229,175.799 386.447 C 175.799 386.949,181.885 386.962,182.059 386.461 C 182.216 386.007,190.038 377.726,200.169 367.289 C 204.309 363.025,208.360 358.848,209.172 358.007 C 211.246 355.860,211.114 355.590,207.841 355.295 C 204.686 355.011,201.348 354.327,200.794 353.850 C 200.591 353.676,200.141 353.533,199.793 353.533 C 199.445 353.533,197.907 352.924,196.375 352.178 C 194.844 351.433,193.510 350.823,193.411 350.823 C 192.988 350.823,187.417 347.063,185.100 345.214 C 181.206 342.108,175.650 336.466,172.128 332.042 C 171.281 330.977,170.388 329.898,170.144 329.644 C 169.577 329.052,164.126 320.856,163.111 319.071 C 162.687 318.325,161.692 316.583,160.898 315.198 C 159.511 312.778,153.340 300.300,153.340 299.916 C 153.340 299.813,152.845 298.636,152.240 297.299 C 151.635 295.963,150.471 293.214,149.654 291.191 C 147.753 286.485,147.545 286.256,144.878 285.958 C 111.366 282.210,87.730 263.936,75.166 232.060 C 74.742 230.985,74.049 229.344,73.625 228.412 C 71.996 224.830,68.489 214.751,66.097 206.776 C 64.589 201.746,62.139 191.505,61.535 187.706 C 61.340 186.481,61.006 184.390,60.791 183.059 C 58.366 168.010,57.844 148.682,59.566 137.657 C 60.031 134.676,60.505 131.626,60.619 130.881 C 60.733 130.136,60.986 128.916,61.183 128.170 C 61.379 127.425,61.808 125.670,62.136 124.271 C 63.528 118.325,66.793 109.464,69.617 103.969 C 70.860 101.551,72.020 99.442,72.385 98.935 C 77.231 92.216,74.878 94.175,62.730 106.972 M324.500 100.581 C 324.505 100.741,324.864 101.307,325.298 101.839 L 326.087 102.807 325.473 101.549 C 324.890 100.353,324.482 99.947,324.500 100.581 M326.068 103.195 C 326.068 103.408,326.317 104.017,326.621 104.550 C 326.926 105.082,327.175 105.344,327.175 105.131 C 327.175 104.918,326.926 104.308,326.621 103.775 C 326.317 103.243,326.068 102.982,326.068 103.195 M328.780 109.197 C 328.779 109.755,329.871 111.971,329.899 111.467 C 329.907 111.332,329.658 110.635,329.347 109.919 C 329.036 109.202,328.781 108.877,328.780 109.197 M335.764 130.300 C 335.759 130.726,335.997 131.946,336.293 133.011 C 336.589 134.076,336.835 134.598,336.840 134.172 C 336.845 133.746,336.607 132.527,336.311 131.462 C 336.015 130.397,335.769 129.874,335.764 130.300 M337.137 136.496 C 337.267 137.348,337.437 138.117,337.515 138.206 C 337.808 138.539,337.589 136.465,337.252 135.721 C 337.007 135.181,336.973 135.416,337.137 136.496 M337.911 140.368 C 338.041 141.220,338.211 141.989,338.290 142.078 C 338.583 142.411,338.363 140.337,338.026 139.593 C 337.782 139.054,337.747 139.288,337.911 140.368 M338.486 143.853 C 338.486 144.279,338.636 144.976,338.819 145.402 L 339.152 146.176 339.152 145.402 C 339.152 144.976,339.002 144.279,338.819 143.853 L 338.486 143.078 338.486 143.853 M339.296 148.693 C 339.296 149.439,339.376 149.743,339.473 149.371 C 339.571 148.998,339.571 148.388,339.473 148.015 C 339.376 147.643,339.296 147.948,339.296 148.693 M340.091 153.921 C 340.094 154.985,340.169 155.375,340.259 154.787 C 340.348 154.198,340.345 153.327,340.253 152.850 C 340.161 152.374,340.088 152.856,340.091 153.921 M340.640 159.535 C 340.759 161.133,340.920 162.512,340.999 162.601 C 341.269 162.905,341.098 159.730,340.761 158.180 C 340.511 157.032,340.480 157.382,340.640 159.535 M341.310 178.509 C 341.309 185.857,341.426 190.823,341.570 189.545 C 341.907 186.567,341.906 170.963,341.569 167.667 C 341.428 166.283,341.311 171.162,341.310 178.509 M340.845 195.160 C 340.845 195.905,340.925 196.210,341.022 195.837 C 341.119 195.465,341.119 194.855,341.022 194.482 C 340.925 194.109,340.845 194.414,340.845 195.160 " stroke="none" fill="#9c2c34" fill-rule="evenodd" data-darkreader-inline-fill="" data-darkreader-inline-stroke="" style="--darkreader-inline-fill:#7d232a; --darkreader-inline-stroke:none;"></path></g></svg><style>@media (prefers-color-scheme: light) { :root { filter: none; } }
</style></svg>